HIERARCHY
ROOT hip
{
	OFFSET 0.000000 0.000000 0.000000 
	CHANNELS 6 Xposition Yposition Zposition Xrotation Zrotation Yrotation
	JOINT abdomen
	{
		OFFSET 0.000000 3.402643 0.000000 
		CHANNELS 3 Xrotation Zrotation Yrotation
		JOINT chest
		{
			OFFSET 0.000000 8.438565 -0.680529 
			CHANNELS 3 Xrotation Zrotation Yrotation
			JOINT neck
			{
				OFFSET 0.000000 10.207942 -0.272212 
				CHANNELS 3 Xrotation Zrotation Yrotation
				JOINT head
				{
					OFFSET 0.000000 3.130431 0.000000 
					CHANNELS 3 Xrotation Zrotation Yrotation
					End Site
					{
						OFFSET 0.000000 3.130435 0.000000 
					}
				}
			}
			JOINT lCollar
			{
				OFFSET 3.470700 6.669187 -0.816635 
				CHANNELS 3 Yrotation Zrotation Xrotation
				JOINT lShldr
				{
					OFFSET 3.198488 0.000000 0.000000 
					CHANNELS 3 Zrotation Yrotation Xrotation
					JOINT lForeArm
					{
						OFFSET 10.139888 0.000000 0.000000 
						CHANNELS 3 Yrotation Zrotation Xrotation
						JOINT lHand
						{
							OFFSET 8.370511 0.000000 0.000000 
							CHANNELS 3 Zrotation Yrotation Xrotation
							End Site
							{
								OFFSET 4.083176 0.000000 0.000000 
							}
						}
					}
				}
			}
			JOINT rCollar
			{
				OFFSET -3.470700 6.669187 -0.816635 
				CHANNELS 3 Yrotation Zrotation Xrotation
				JOINT rShldr
				{
					OFFSET -3.198488 0.000000 0.000000 
					CHANNELS 3 Zrotation Yrotation Xrotation
					JOINT rForeArm
					{
						OFFSET -10.139888 0.000000 0.000000 
						CHANNELS 3 Yrotation Zrotation Xrotation
						JOINT rHand
						{
							OFFSET -8.370511 0.000000 0.000000 
							CHANNELS 3 Zrotation Yrotation Xrotation
							End Site
							{
								OFFSET -4.083176 0.000000 0.000000 
							}
						}
					}
				}
			}
		}
	}
	JOINT lThigh
	{
		OFFSET 5.308129 -1.633274 1.361059 
		CHANNELS 3 Xrotation Zrotation Yrotation
		JOINT lShin
		{
			OFFSET -2.041588 -20.007561 0.000000 
			CHANNELS 3 Xrotation Zrotation Yrotation
			JOINT lFoot
			{
				OFFSET 0.000000 -19.190928 -1.224953 
				CHANNELS 3 Xrotation Yrotation Zrotation
				End Site
				{
					OFFSET 0.000000 -2.449906 4.627600 
				}
			}
		}
	}
	JOINT rThigh
	{
		OFFSET -5.308129 -1.633274 1.361059 
		CHANNELS 3 Xrotation Zrotation Yrotation
		JOINT rShin
		{
			OFFSET 2.041588 -20.007561 0.000000 
			CHANNELS 3 Xrotation Zrotation Yrotation
			JOINT rFoot
			{
				OFFSET 0.000000 -19.190928 -1.224953 
				CHANNELS 3 Xrotation Yrotation Zrotation
				End Site
				{
					OFFSET 0.000000 -2.449906 4.627600 
				}
			}
		}
	}
}
MOTION
Frames: 8
Frame Time: 0.033333
-1.180477 47.594429 0.686704 -2.734420 10.277806 6.918186 0.000000 0.000000 0.000000 -2.617417 0.619965 -30.919973 -31.873413 -4.823616 13.544288 27.876514 3.289073 7.874631 -3.521967 9.154817 6.304141 -79.337669 -68.192772 -1.458991 -123.186615 -12.042579 11.361218 35.375385 13.626809 -8.171382 3.089181 -14.089146 8.026228 77.050499 18.895802 -20.046492 18.936356 -14.429652 67.681305 -39.124451 -27.955994 -3.966341 21.837694 14.910973 26.329750 29.588684 -6.155571 -28.470133 35.308720 -8.030057 -29.604904 -11.828589 -29.300409 -39.712864 54.253201 7.053009 -14.188769 -33.940140 0.176714 -1.174321 
-1.711768 47.671234 1.269907 -4.178787 11.528179 1.716052 0.000000 0.000000 0.000000 -1.683301 -0.869775 -28.138351 -30.781498 -4.911822 13.870288 27.109800 3.470286 8.179728 -3.521967 9.154817 6.304141 -70.541321 -63.714886 -11.843912 -122.621552 -12.169137 10.735649 35.729061 14.408751 -7.958627 3.089181 -14.089146 8.026228 76.474464 19.181417 -20.269293 18.912485 -14.425858 66.714424 -39.540569 -27.777409 -3.957423 19.275173 16.230072 28.590815 39.370949 -5.749012 -32.520805 38.802414 -11.102361 -36.113285 -12.422702 -28.424864 -36.560455 53.917816 5.538126 -13.449407 -35.283298 0.417772 -1.675895 
-2.226526 47.981468 1.711801 -5.251050 12.575039 -2.630024 0.000000 0.000000 0.000000 -0.538347 -2.319939 -25.422758 -30.517401 -4.185433 13.649688 27.134604 2.781611 8.506388 -3.521967 9.154817 6.304141 -61.933041 -56.640453 -21.364931 -123.263741 -12.581125 10.570799 39.064236 14.771374 -7.786903 3.089181 -14.089146 8.026228 76.398293 19.696232 -20.682549 19.007479 -14.589615 66.819542 -39.699379 -28.112913 -3.822078 14.582631 19.244650 30.073053 52.161087 -3.956177 -28.455341 38.317081 -10.552861 -34.820618 -12.472341 -27.776573 -34.269230 52.775539 4.669356 -12.376708 -35.016766 0.504209 -1.915528 
-2.734564 48.393349 2.009420 -6.376955 13.835189 -6.668931 0.000000 0.000000 0.000000 0.249747 -4.477537 -23.023832 -29.341932 -3.449716 13.325009 26.668991 1.881779 8.823185 -3.521967 9.154817 6.304141 -58.836384 -45.879360 -26.991154 -123.307465 -13.200720 10.430429 41.079861 16.243561 -7.272284 3.089181 -14.089146 8.026228 77.442261 21.089642 -19.655933 19.038357 -15.130079 66.983955 -39.411007 -28.099207 -3.879449 9.124486 22.846371 30.542318 64.222290 -1.760108 -19.458195 36.748650 -9.049308 -31.498661 -12.257206 -27.502554 -32.436470 50.976456 4.024546 -10.974287 -34.278378 0.647649 -2.334225 
-3.209800 48.801678 2.136632 -7.558366 15.329265 -11.059808 0.000000 0.000000 0.000000 0.526137 -6.576602 -21.230518 -29.798132 -3.667907 13.964526 26.899458 1.725748 9.164494 -3.521967 9.154817 6.304141 -59.264519 -31.692579 -33.486038 -121.646011 -14.007267 10.189434 42.427879 15.752422 -7.391482 3.089181 -14.089146 8.026228 78.173393 20.379599 -18.356104 27.356588 -10.244199 67.774544 -38.276966 -27.649124 -4.193718 3.460850 25.998610 29.903597 73.147659 -0.160080 -15.395301 36.935555 -9.140368 -31.606396 -12.627240 -27.497650 -30.418791 49.269135 3.029196 -9.603364 -33.275276 0.761043 -2.739687 
-3.666227 49.202885 2.248728 -9.197186 16.448025 -16.205542 0.000000 0.000000 0.000000 0.658901 -8.119809 -18.276255 -28.736546 -4.426320 14.918101 25.998390 1.810429 9.565602 -3.521967 9.154817 6.304141 -61.521568 -17.468447 -38.892704 -115.621864 -14.663090 15.395253 43.881073 15.959457 -7.255384 3.089181 -14.089146 8.026228 78.698830 19.053957 -15.998171 37.445366 -4.136990 68.279861 -38.003929 -28.551605 -3.976556 -1.341998 29.278904 28.835491 79.122314 1.159259 -15.476309 38.333546 -10.283290 -33.920429 -12.725133 -27.370634 -28.496983 47.353630 2.043041 -7.893790 -32.112816 0.906181 -3.237285 
-3.955866 49.673752 2.214762 -10.397598 18.087271 -22.069029 0.000000 0.000000 0.000000 -0.258922 -10.635850 -14.483544 -27.600710 -4.272687 15.512717 25.561609 1.806549 10.268983 -3.521967 9.154817 6.304141 -64.094101 -5.617601 -44.473686 -105.743584 -14.909700 24.143139 45.014172 15.311368 -7.445156 3.089181 -14.089146 8.026228 80.437775 20.617781 -10.552016 43.106083 -1.369360 67.523476 -38.660908 -27.810833 -4.091489 -6.651277 32.380600 27.310732 83.299225 2.026848 -14.667452 38.922134 -10.851047 -35.144745 -14.326341 -27.707315 -26.015486 45.359924 0.830024 -5.188438 -30.075211 1.070347 -3.891072 
-4.249854 50.196617 2.316307 -13.229290 19.575571 -28.658043 0.000000 0.000000 0.000000 0.039255 -13.634851 -10.255135 -26.446838 -3.790463 16.129892 24.380186 1.503940 11.214970 -3.521967 9.154817 6.304141 -67.130226 3.033568 -49.413387 -91.967796 -13.456661 33.450607 46.462578 15.441968 -7.347011 3.089181 -14.089146 8.026228 82.881371 22.965033 -3.729697 47.989834 0.711264 67.959320 -38.067955 -27.135670 -4.381577 -10.127299 35.536934 25.444115 85.557968 2.711194 -14.122914 38.385986 -10.656081 -35.098316 -14.745740 -28.274921 -23.770758 43.054661 -0.953984 -2.686868 -28.640511 1.316381 -4.834052 
